# xmcd CD database file
# Generated: Fri May 7 20:58:25 2004 by KSCD
# 
# Track frame offsets:
#       150
#       13149
#       23090
#       37349
#       49625
#       67273
#       81686
#       93069
#       105598
#       115148
#       127491
#       139268
#       152243
#       164624
#
# Disc length: 2365 seconds
#
# Revision: 9
# Processed by: cddbd v1.5PL3 Copyright (c) Steve Scherf et al.
# Submitted via: Kscd 1.3.3
#
DISCID=ce093b0e
DTITLE=Merle Haggard - The Platinum Collection
DYEAR=1900
DGENRE=
TTITLE0=Swinging Doors
TTITLE1=Mama Tried
TTITLE2=I'm a Lonesome Fugitive
TTITLE3=Okie from Muskogee
TTITLE4=I Think I'll Just Stay Here and Drink
TTITLE5=Branded Man
TTITLE6=My Friends Are Gonna Be Strangers
TTITLE7=If We Make It Through December
TTITLE8=The Legend of Bonnie and Clyde
TTITLE9=The Bottle Let Me Down
TTITLE10=Carolyn
TTITLE11=The Fightin'Side of Me
TTITLE12=Workin' Man Blues
TTITLE13=Sing Me Back Home
EXTD=
EXTT0=
EXTT1=
EXTT2=
EXTT3=
EXTT4=
EXTT5=
EXTT6=
EXTT7=
EXTT8=
EXTT9=
EXTT10=
EXTT11=
EXTT12=
EXTT13=
PLAYORDER=
